<svg id="Layer_1" enable-background="new 0 0 512 512" height="512" viewBox="0 0 512 512" width="512" xmlns="http://www.w3.org/2000/svg"><path d="m496 104h-107.844c15.615-13.021 19.844-27.811 19.844-40 0-40.673-23.327-64-64-64-41.266 0-69.981 40.024-88 77.339-18.014-37.304-46.728-77.339-88-77.339-40.673 0-64 23.327-64 64 0 12.189 4.229 26.979 19.844 40h-107.844c-8.837 0-16 7.163-16 16v112c0 8.837 7.163 16 16 16v248c0 8.837 7.163 16 16 16h448c8.837 0 16-7.163 16-16v-248c8.837 0 16-7.163 16-16v-112c0-8.837-7.163-16-16-16zm-16 112h-152v-80h152zm-264-80h80v80h-80zm128-104c23.028 0 32 8.972 32 32 0 22.516-46.432 36.048-96.682 39.257 12.735-29.772 36.647-71.257 64.682-71.257zm-176 0c27.934 0 51.875 41.48 64.649 71.255-50.238-3.213-96.649-16.743-96.649-39.255 0-23.028 8.972-32 32-32zm-136 104h152v80h-152zm16 112h152v232h-152zm184 232v-232h48v232zm232 0h-152v-232h152z"/></svg>