<svg xmlns="http://www.w3.org/2000/svg" height="512pt" version="1.1" viewBox="-31 0 512 512" width="512pt">
<g id="surface1">
<path d="M 360 60 C 360 80.097656 350.097656 98.699219 333.601562 109.800781 L 277.800781 147.300781 C 270.902344 152.101562 261.597656 150.300781 257.101562 143.398438 C 252.300781 136.5 254.097656 127.199219 261 122.699219 L 316.800781 84.898438 C 324.902344 79.199219 330 69.898438 330 60 C 330 43.5 316.5 30 300 30 C 286.5 30 274.5 39 270.902344 52.199219 L 247.5 138.898438 C 245.699219 145.5 239.699219 150 233.101562 150 C 231.898438 150 230.398438 149.699219 229.199219 149.398438 C 227.699219 149.097656 226.199219 148.199219 225 147.300781 C 223.800781 148.199219 222.300781 149.097656 220.800781 149.398438 C 219.601562 149.699219 218.101562 150 216.902344 150 C 210.300781 150 204.300781 145.5 202.503906 138.898438 L 179.101562 52.199219 C 175.5 39 163.5 30 150 30 C 133.5 30 120 43.5 120 60 C 120 69.898438 125.097656 79.199219 133.199219 84.898438 L 189 122.699219 C 195.902344 127.199219 197.699219 136.5 192.898438 143.398438 C 188.402344 150.300781 179.097656 152.101562 172.199219 147.300781 L 116.398438 109.800781 C 99.898438 98.699219 90 80.097656 90 60 C 90 27 117 0 150 0 C 177 0 201 18.300781 207.898438 44.398438 L 225 107.398438 L 242.101562 44.398438 C 249 18.300781 273 0 300 0 C 333 0 360 27 360 60 Z M 360 60 " style=" stroke:none;fill-rule:nonzero;fill:rgb(100%,83.137255%,0%);fill-opacity:1;" />
<path d="M 360 60 C 360 80.097656 350.097656 98.699219 333.601562 109.800781 L 277.800781 147.300781 C 270.902344 152.101562 261.597656 150.300781 257.101562 143.398438 C 252.300781 136.5 254.097656 127.199219 261 122.699219 L 316.800781 84.898438 C 324.902344 79.199219 330 69.898438 330 60 C 330 43.5 316.5 30 300 30 C 286.5 30 274.5 39 270.902344 52.199219 L 247.5 138.898438 C 245.699219 145.5 239.699219 150 233.101562 150 C 231.898438 150 230.398438 149.699219 229.199219 149.398438 C 227.699219 149.097656 226.199219 148.199219 225 147.300781 L 225 107.398438 L 242.101562 44.398438 C 249 18.300781 273 0 300 0 C 333 0 360 27 360 60 Z M 360 60 " style=" stroke:none;fill-rule:nonzero;fill:rgb(99.215686%,74.901961%,0%);fill-opacity:1;" />
<path d="M 420 240 L 420 467 C 420 491.898438 399.902344 512 375 512 L 255 512 L 225 482 L 195 512 L 75 512 C 50.097656 512 30 491.898438 30 467 L 30 240 Z M 420 240 " style=" stroke:none;fill-rule:nonzero;fill:rgb(100%,47.058824%,8.627451%);fill-opacity:1;" />
<path d="M 420 240 L 420 467 C 420 491.898438 399.902344 512 375 512 L 255 512 L 225 482 L 225 240 Z M 420 240 " style=" stroke:none;fill-rule:nonzero;fill:rgb(100%,29.411765%,0%);fill-opacity:1;" />
<path d="M 450 165 L 450 285 C 450 293.398438 443.402344 300 435 300 L 15 300 C 6.597656 300 0 293.398438 0 285 L 0 165 C 0 140.097656 20.097656 120 45 120 L 195 120 L 225 150 L 255 120 L 405 120 C 429.902344 120 450 140.097656 450 165 Z M 450 165 " style=" stroke:none;fill-rule:nonzero;fill:rgb(100%,62.352941%,0%);fill-opacity:1;" />
<path d="M 450 165 L 450 285 C 450 293.398438 443.402344 300 435 300 L 225 300 L 225 150 L 255 120 L 405 120 C 429.902344 120 450 140.097656 450 165 Z M 450 165 " style=" stroke:none;fill-rule:nonzero;fill:rgb(100%,47.058824%,8.627451%);fill-opacity:1;" />
<path d="M 109.394531 235.605469 C 103.535156 229.746094 103.535156 220.253906 109.394531 214.394531 L 199.394531 124.394531 C 205.253906 118.535156 214.746094 118.535156 220.605469 124.394531 C 226.464844 130.253906 226.464844 139.746094 220.605469 145.605469 L 130.605469 235.605469 C 124.746094 241.464844 115.253906 241.464844 109.394531 235.605469 Z M 109.394531 235.605469 " style=" stroke:none;fill-rule:nonzero;fill:rgb(100%,89.411765%,43.921569%);fill-opacity:1;" />
<path d="M 319.394531 235.605469 L 229.394531 145.605469 C 223.535156 139.746094 223.535156 130.253906 229.394531 124.394531 C 235.253906 118.535156 244.746094 118.535156 250.605469 124.394531 L 340.605469 214.394531 C 346.464844 220.253906 346.464844 229.746094 340.605469 235.605469 C 334.746094 241.464844 325.253906 241.464844 319.394531 235.605469 Z M 319.394531 235.605469 " style=" stroke:none;fill-rule:nonzero;fill:rgb(100%,83.137255%,0%);fill-opacity:1;" />
<path d="M 195 120 L 255 120 L 255 512 L 195 512 Z M 195 120 " style=" stroke:none;fill-rule:nonzero;fill:rgb(100%,89.411765%,43.921569%);fill-opacity:1;" />
<path d="M 225 120 L 255 120 L 255 512 L 225 512 Z M 225 120 " style=" stroke:none;fill-rule:nonzero;fill:rgb(100%,83.137255%,0%);fill-opacity:1;" />
</g>
</svg>